<svg width="91" height="91" viewBox="0 0 91 91" fill="none" xmlns="http://www.w3.org/2000/svg">
<path d="M64.666 30.208C62.471 28.392 59.652 27.394 56.73 27.394C53.355 27.394 50.088 28.736 47.768 31.08C47.351 31.502 46.96 31.955 46.593 32.447C43.752 28.666 39.005 26.726 34.31 27.584C30.414 28.291 27.351 30.432 25.212 33.943C22.194 38.9 21.947 43.681 24.482 48.154C25.837 50.547 27.595 52.879 29.857 55.283C34 59.687 38.904 63.867 45.291 68.433C45.699 68.726 46.136 68.874 46.592 68.874C47.294 68.874 47.768 68.519 48.003 68.345C53.766 64.23 58.293 60.437 62.251 56.402C64.461 54.15 66.969 51.382 68.803 47.925C69.589 46.448 70.485 44.46 70.432 42.189C70.314 37.302 68.375 33.271 64.666 30.208ZM65.801 46.331C64.168 49.405 61.864 51.942 59.824 54.02C56.164 57.752 51.979 61.284 46.586 65.178C40.717 60.932 36.174 57.033 32.334 52.949C30.261 50.746 28.66 48.629 27.439 46.474C25.506 43.064 25.721 39.642 28.117 35.71C29.729 33.062 32.017 31.452 34.919 30.925C35.475 30.823 36.038 30.773 36.593 30.773C40.033 30.773 43.08 32.673 44.801 35.972L45.093 36.523C45.393 37.086 46.011 37.406 46.621 37.421C47.26 37.409 47.837 37.044 48.118 36.47C48.722 35.238 49.381 34.282 50.185 33.468C51.871 31.767 54.256 30.79 56.73 30.79C58.863 30.79 60.912 31.513 62.501 32.827C65.457 35.268 66.939 38.358 67.034 42.266C67.067 43.741 66.43 45.147 65.801 46.331Z" fill="#FF0000"/>
</svg>
